# xmcd
#
# Track frame offsets:
# 150
# 12945
# 26395
# 39359
# 51597
# 66741
# 80746
# 98118
# 113454
# 132467
# 142680
#
# Disc length: 2126 seconds
#
#
# Revision: 0
# Processed by: cddbd v1.5.2PL0 Copyright (c) Steve Scherf et al.
# Submitted via: FreeRIP 2.60 
#
DISCID=91084c0b
DTITLE=Chris Hester - Steps I've Taken
DYEAR=2009
DGENRE=Gospel
TTITLE0=Get Out There
TTITLE1=Empty Handed
TTITLE2=Standing in the Middle of a Miracle
TTITLE3=Evidence of Love
TTITLE4=He Already knows what You Need
TTITLE5=Baptized
TTITLE6=Tears Will Never Stain the Streets
TTITLE7=I Know Ill Be There
TTITLE8=Shes Learning to Walk
TTITLE9=Talk Back
TTITLE10=Put a Ring on it
EXTD=
EXTT0=
EXTT1=
EXTT2=
EXTT3=
EXTT4=
EXTT5=
EXTT6=
EXTT7=
EXTT8=
EXTT9=
EXTT10=
PLAYORDER=
